<svg width="80" height="80" viewBox="0 0 80 80" fill="none" xmlns="http://www.w3.org/2000/svg">
<circle cx="40" cy="40" r="40" fill="#EE0034"/>
<path d="M32.3343 30.5027L48.1843 39.749C48.2979 39.8155 48.3921 39.9106 48.4576 40.0248C48.523 40.139 48.5575 40.2683 48.5575 40.3999C48.5575 40.5315 48.523 40.6608 48.4576 40.775C48.3921 40.8892 48.2979 40.9843 48.1843 41.0508L32.3343 50.2971C32.2195 50.3641 32.089 50.3996 31.956 50.3999C31.823 50.4002 31.6924 50.3654 31.5772 50.2989C31.462 50.2325 31.3665 50.1367 31.3003 50.0215C31.234 49.9062 31.1994 49.7754 31.2 49.6425V31.1543C31.2 31.0216 31.2349 30.8912 31.3014 30.7764C31.3679 30.6615 31.4634 30.5662 31.5785 30.5001C31.6936 30.434 31.8241 30.3995 31.9568 30.3999C32.0895 30.4004 32.2197 30.4358 32.3343 30.5027Z" fill="white"/>
</svg>
