<svg width="60" height="60" viewBox="0 0 60 60" fill="none" xmlns="http://www.w3.org/2000/svg">
<rect width="60" height="60" fill="#EE0034"/>
<path d="M23.2266 17.625C20.2734 19.1484 17.7422 21.7266 16.5469 24.4453C15.4453 26.9297 15.2109 28.7109 15.0703 35.6953C14.9531 41.6953 14.9766 42.2344 15.3516 42.6562C15.75 43.1016 16.1016 43.125 21.2344 43.125C26.6016 43.125 26.6953 43.125 27.0469 42.6094C27.3516 42.1641 27.4219 41.2031 27.4219 36.8906C27.4219 30.4922 27.6328 30.8672 23.9297 30.75L21.4219 30.6562L21.6094 29.1094C21.8438 27.2109 22.8984 24.9375 24.0234 23.9531C24.4688 23.5547 25.3359 22.9453 25.9453 22.5938C28.1484 21.3281 28.2188 21.1641 27.3047 19.0547C26.2031 16.5938 25.6172 16.3828 23.2266 17.625Z" fill="white"/>
<path d="M40.4531 17.6016C37.3594 19.1953 35.0156 21.5391 33.7031 24.2812C32.5547 26.7187 32.3203 28.5469 32.1797 35.6953C32.0625 41.6953 32.0859 42.2344 32.4609 42.6562C32.8594 43.1016 33.2344 43.125 38.3203 43.125C43.2891 43.125 43.7812 43.0781 44.1328 42.7031C44.4844 42.3281 44.5312 41.5781 44.5312 36.9844C44.5312 30.4687 44.7422 30.8672 40.9922 30.75L38.4375 30.6562L38.5781 29.6953C39.0938 26.0391 40.2891 24.1406 43.0078 22.6172C44.5547 21.75 45 21.3516 45 20.8359C45 20.3906 43.8047 17.7656 43.3594 17.2266C42.9141 16.6875 41.9766 16.8047 40.4531 17.6016Z" fill="white"/>
</svg>
