<svg width="59" height="59" viewBox="0 0 59 59" fill="none" xmlns="http://www.w3.org/2000/svg">
<ellipse cx="29.8359" cy="29.3707" rx="29.1343" ry="28.7586" fill="#EE0034"/>
<path d="M24.2524 22.5424L35.7969 29.1902C35.8797 29.238 35.9483 29.3064 35.996 29.3885C36.0436 29.4705 36.0687 29.5635 36.0687 29.6582C36.0687 29.7528 36.0436 29.8458 35.996 29.9279C35.9483 30.01 35.8797 30.0783 35.7969 30.1261L24.2524 36.7739C24.1688 36.8221 24.0737 36.8476 23.9769 36.8478C23.8801 36.848 23.7849 36.823 23.701 36.7752C23.6171 36.7274 23.5475 36.6586 23.4993 36.5757C23.4511 36.4928 23.4259 36.3988 23.4263 36.3032V23.0109C23.4262 22.9155 23.4517 22.8218 23.5001 22.7392C23.5485 22.6566 23.6182 22.5881 23.702 22.5406C23.7858 22.493 23.8808 22.4682 23.9775 22.4685C24.0741 22.4688 24.169 22.4943 24.2524 22.5424Z" fill="white"/>
</svg>
