<svg width="50" height="50" viewBox="0 0 50 50" fill="none" xmlns="http://www.w3.org/2000/svg">
<circle cx="25" cy="25" r="25" fill="#EE0034"/>
<path d="M20.7188 18.072L30.7635 24.5444C30.8355 24.5909 30.8952 24.6575 30.9367 24.7374C30.9782 24.8173 31 24.9079 31 25C31 25.0921 30.9782 25.1827 30.9367 25.2626C30.8952 25.3425 30.8355 25.4091 30.7635 25.4556L20.7188 31.928C20.6461 31.975 20.5634 31.9998 20.4791 32C20.3948 32.0002 20.312 31.9758 20.239 31.9293C20.1661 31.8828 20.1055 31.8158 20.0635 31.7351C20.0216 31.6544 19.9996 31.5629 20 31.4698V18.5281C20 18.4352 20.0221 18.3439 20.0643 18.2635C20.1064 18.1831 20.167 18.1164 20.2399 18.0702C20.3128 18.0239 20.3955 17.9997 20.4796 18C20.5637 18.0003 20.6462 18.0251 20.7188 18.072Z" fill="white"/>
</svg>
